<svg id="Layer_1" data-name="Layer 1" xmlns="http://www.w3.org/2000/svg" viewBox="0 0 322.62 60.79">
  <defs>
    <style>
    .note.cls-1{fill:#e50051;animation-delay: 1.1s}
    .note.cls-2{fill:#e6007e;animation-delay: 1s}
    .note.cls-3{fill:#951b81;animation-delay: 0.9s}
    .note.cls-5{fill:#312783;animation-delay: 0.8s}
    .note.cls-4{fill:#0069b4;animation-delay: 0.7s}
    .note.cls-6{fill:#009fe3;animation-delay: 0.6s}
    .note.cls-7{fill:#009a93;animation-delay: 0.5s}
    .note.cls-8{fill:#009640;animation-delay: 0.4s}
    .note.cls-9{fill:#95c11f;animation-delay: 0.3s}
    .note.cls-10{fill:#ffed00;animation-delay: 0.2s}
    .note.cls-11{fill:#f39200;animation-delay: 0.1s}
    .note.cls-12{fill:#e30613;}
    .note {
      animation: blink 16s infinite ease;
    }
    @keyframes blink {
      from {opacity:1;}
      90% {opacity:0;}
      95% {opacity:0;}
      to {opacity:1;}
    }

    .cls-13{fill:#1d1d1b;}
    .letters path{
      animation: follow 16s infinite ease;
    }
    @keyframes follow {
      from {opacity:0;}
      90% {opacity:1;}
      95% {opacity:1;}
      to {opacity:0;}
    }

    </style>
</defs><title>CT-new</title>
<g class="notes">
<path class="note cls-1" d="M305.14,39.28a6.84,6.84,0,0,1-4.78-2,6.73,6.73,0,0,1-2-4.78,8.08,8.08,0,0,1,.14-1.32,7.12,7.12,0,0,1,.39-1.29,7.57,7.57,0,0,1,.63-1.15,5.35,5.35,0,0,1,.85-1.06,7,7,0,0,1,9.56,0,6.76,6.76,0,0,1,.86,1.06,8.56,8.56,0,0,1,.63,1.15,7.13,7.13,0,0,1,.53,2.61,6.7,6.7,0,0,1-2,4.78A6.83,6.83,0,0,1,305.14,39.28Z"/>

<path class="note cls-2" d="M285.53,39.28a6.83,6.83,0,0,1-4.78-2,6.69,6.69,0,0,1-2-4.78,8.09,8.09,0,0,1,.13-1.32,7.2,7.2,0,0,1,.4-1.29,7.52,7.52,0,0,1,.62-1.15,6.71,6.71,0,0,1,7-2.9,9,9,0,0,1,1.28.4,5.65,5.65,0,0,1,1.16.62,6.78,6.78,0,0,1,1,.82,6.89,6.89,0,0,1,2,4.82,6.73,6.73,0,0,1-2,4.78,7,7,0,0,1-1,.86,11.68,11.68,0,0,1-1.16.62,6.18,6.18,0,0,1-1.28.37A6.56,6.56,0,0,1,285.53,39.28Z"/>

<path class="note cls-3" d="M264.76,39.28a7,7,0,0,1-4.81-2,6.78,6.78,0,0,1-2-4.78,7,7,0,0,1,2-4.82,7,7,0,0,1,1.05-.82,5.41,5.41,0,0,1,1.16-.62,7.29,7.29,0,0,1,1.25-.4,6.78,6.78,0,1,1,1.35,13.42Z"/>

<path class="note cls-4" d="M219.43,39.28a7,7,0,0,1-4.81-2,6.27,6.27,0,0,1-.83-1,6.7,6.7,0,0,1-.62-1.19,7.59,7.59,0,0,1-.4-1.25,9.83,9.83,0,0,1-.13-1.32,10.28,10.28,0,0,1,.13-1.35,7.7,7.7,0,0,1,.4-1.26,7.52,7.52,0,0,1,.62-1.15,6.58,6.58,0,0,1,.83-1.06,7,7,0,0,1,1-.82,5.65,5.65,0,0,1,1.16-.62,9,9,0,0,1,1.28-.4,6.82,6.82,0,0,1,6.1,1.84,7.37,7.37,0,0,1,.86,1.06,7.52,7.52,0,0,1,.62,1.15,5.53,5.53,0,0,1,.37,1.26,6.18,6.18,0,0,1,.13,1.35,5.91,5.91,0,0,1-.13,1.32,5.45,5.45,0,0,1-.37,1.25,6.7,6.7,0,0,1-.62,1.19,7,7,0,0,1-.86,1A6.83,6.83,0,0,1,219.43,39.28Z"/>

<path class="note cls-5" d="M242.74,39.28a6.83,6.83,0,0,1-4.78-2,6.66,6.66,0,0,1-2-4.78,6.82,6.82,0,0,1,2-4.82,6.32,6.32,0,0,1,1-.82,5.58,5.58,0,0,1,1.15-.62,9.11,9.11,0,0,1,1.29-.4,6.71,6.71,0,0,1,6.1,1.84,6.89,6.89,0,0,1,2,4.82,6.73,6.73,0,0,1-2,4.78A6.84,6.84,0,0,1,242.74,39.28Z"/>

<path class="note cls-6" d="M194.71,39.28a6.56,6.56,0,0,1-1.32-.13,5.3,5.3,0,0,1-1.25-.37,8.86,8.86,0,0,1-1.19-.62,6.54,6.54,0,0,1-1-.86,6.45,6.45,0,0,1-.86-1,11.08,11.08,0,0,1-.63-1.19,7.22,7.22,0,0,1-.49-2.57,6.18,6.18,0,0,1,.13-1.35,6.06,6.06,0,0,1,.36-1.26c.2-.39.4-.79.63-1.15a6.76,6.76,0,0,1,.86-1.06,6.32,6.32,0,0,1,1-.82,5,5,0,0,1,1.19-.62,7.29,7.29,0,0,1,1.25-.4,6.91,6.91,0,0,1,6.13,1.84,7,7,0,0,1,2,4.82,6.83,6.83,0,0,1-2,4.78A7,7,0,0,1,194.71,39.28Z"/>

<path class="note cls-7" d="M168.53,39.28a6.76,6.76,0,0,1-6.76-6.76,7,7,0,0,1,2-4.82,6.78,6.78,0,0,1,1-.82,5.18,5.18,0,0,1,1.19-.62,7.29,7.29,0,0,1,1.25-.4,7.49,7.49,0,0,1,2.67,0,7.7,7.7,0,0,1,1.26.4,6.7,6.7,0,0,1,1.18.62,8,8,0,0,1,1,.82,6.58,6.58,0,0,1,.83,1.06,5.58,5.58,0,0,1,.62,1.15,7.7,7.7,0,0,1,.4,1.26,6.18,6.18,0,0,1,.13,1.35,5.91,5.91,0,0,1-.13,1.32,7.59,7.59,0,0,1-.4,1.25,5.18,5.18,0,0,1-.62,1.19,6.27,6.27,0,0,1-.83,1A6.9,6.9,0,0,1,168.53,39.28Z"/>

<path class="note cls-8" d="M140.81,39.28a6.83,6.83,0,0,1-4.78-2,6.69,6.69,0,0,1-2-4.78,6.85,6.85,0,0,1,2-4.82,6.32,6.32,0,0,1,1-.82,5.58,5.58,0,0,1,1.15-.62,9.11,9.11,0,0,1,1.29-.4,7.32,7.32,0,0,1,2.64,0,9.4,9.4,0,0,1,1.28.4,5.34,5.34,0,0,1,1.15.62,6.4,6.4,0,0,1,1,.82,6.7,6.7,0,0,1,.85,1.06,7.57,7.57,0,0,1,.63,1.15,8.8,8.8,0,0,1,.4,1.26,10.28,10.28,0,0,1,.13,1.35,9.83,9.83,0,0,1-.13,1.32,8.67,8.67,0,0,1-.4,1.25,6.74,6.74,0,0,1-.63,1.19,6.39,6.39,0,0,1-.85,1A6.84,6.84,0,0,1,140.81,39.28Z"/>

<path class="note cls-9" d="M111.43,39.28a7,7,0,0,1-4.81-2,6.21,6.21,0,0,1-.82-1,4.85,4.85,0,0,1-.63-1.19,7.59,7.59,0,0,1-.4-1.25,5.91,5.91,0,0,1-.13-1.32,6.18,6.18,0,0,1,.13-1.35,7.7,7.7,0,0,1,.4-1.26,5.19,5.19,0,0,1,.63-1.15,6.52,6.52,0,0,1,.82-1.06,6.91,6.91,0,0,1,6.13-1.84,7.29,7.29,0,0,1,1.25.4,5,5,0,0,1,1.19.62,6.32,6.32,0,0,1,1,.82,6.76,6.76,0,0,1,.86,1.06,7.34,7.34,0,0,1,.59,1.15,4.41,4.41,0,0,1,.4,1.26,6.18,6.18,0,0,1,.13,1.35,5.91,5.91,0,0,1-.13,1.32,4.34,4.34,0,0,1-.4,1.25,6.6,6.6,0,0,1-.59,1.19,6.45,6.45,0,0,1-.86,1A6.83,6.83,0,0,1,111.43,39.28Z"/>

<path class="note cls-10" d="M80.28,39.28A6.78,6.78,0,0,1,79,39.15a5.3,5.3,0,0,1-1.25-.37,9.5,9.5,0,0,1-1.19-.62,9.11,9.11,0,0,1-1-.86,9.64,9.64,0,0,1-.86-1,6.6,6.6,0,0,1-.59-1.19,5.52,5.52,0,0,1-.4-1.25,5.91,5.91,0,0,1-.13-1.32,6.18,6.18,0,0,1,.13-1.35,5.6,5.6,0,0,1,.4-1.26,7.34,7.34,0,0,1,.59-1.15,10.17,10.17,0,0,1,.86-1.06,8.72,8.72,0,0,1,1-.82,5.18,5.18,0,0,1,1.19-.62,7.29,7.29,0,0,1,1.25-.4,6.76,6.76,0,0,1,8.11,6.66,6.76,6.76,0,0,1-6.79,6.76Z"/>

<path class="note cls-11" d="M47.31,39.28A6.47,6.47,0,0,1,46,39.15a5.53,5.53,0,0,1-1.26-.37,8.72,8.72,0,0,1-1.18-.62,6.62,6.62,0,0,1-1-.86,6.73,6.73,0,0,1-2-4.78,6.89,6.89,0,0,1,2-4.82,6.4,6.4,0,0,1,1-.82,5.34,5.34,0,0,1,1.15-.62,9.11,9.11,0,0,1,1.29-.4,7.27,7.27,0,0,1,2.63,0,8,8,0,0,1,1.29.4,5.58,5.58,0,0,1,1.15.62,6.65,6.65,0,0,1,1.06.82,7,7,0,0,1,2,4.82,6.7,6.7,0,0,1-3,5.64,11.52,11.52,0,0,1-1.15.62,7.38,7.38,0,0,1-2.61.5Z"/>

<path class="note cls-12" d="M12.37,39.28a6.83,6.83,0,0,1-4.78-2,7,7,0,0,1-.86-1,9.5,9.5,0,0,1-.62-1.19,5.45,5.45,0,0,1-.37-1.25,5.91,5.91,0,0,1-.13-1.32,6.18,6.18,0,0,1,.13-1.35,5.53,5.53,0,0,1,.37-1.26,11.52,11.52,0,0,1,.62-1.15,7.37,7.37,0,0,1,.86-1.06A6.7,6.7,0,0,1,15,26.26a5.41,5.41,0,0,1,1.16.62,7,7,0,0,1,1.05.82A6.58,6.58,0,0,1,18,28.76a5.58,5.58,0,0,1,.62,1.15,7.7,7.7,0,0,1,.4,1.26,10.28,10.28,0,0,1,.13,1.35A9.83,9.83,0,0,1,19,33.84a7.59,7.59,0,0,1-.4,1.25A5.18,5.18,0,0,1,18,36.28a6.27,6.27,0,0,1-.83,1A7,7,0,0,1,12.37,39.28Z"/>
</g>
<g class="letters">
<path class="cls-13" d="M42.52,17.63a14.1,14.1,0,0,0-7.26-7.74A14.39,14.39,0,0,0,29.35,8.6h-.23a15.42,15.42,0,0,0-4.2.59,15.26,15.26,0,0,0-8.67,6.19,20.75,20.75,0,0,0-3.37,12v1.41a19.41,19.41,0,0,0,4.37,11.75,15.88,15.88,0,0,0,9.09,5.55,11.53,11.53,0,0,0,2.6.3h.41a12.79,12.79,0,0,0,6.79-1.95q5-3,7.14-10.1a1.86,1.86,0,0,1,2.28-1.21,1.73,1.73,0,0,1,1.09.89,1.86,1.86,0,0,1,.12,1.45Q44.22,43.89,38,47.62a16.07,16.07,0,0,1-8.62,2.54,17.11,17.11,0,0,1-3.72-.42A19.44,19.44,0,0,1,14.47,43Q9.64,37.24,9.22,28.43q-.06-.76-.06-1.53a22.8,22.8,0,0,1,3.9-13.35A18.94,18.94,0,0,1,23.92,5.64a19.73,19.73,0,0,1,5.2-.7,19,19,0,0,1,7.67,1.65A18,18,0,0,1,46,16.21a1.68,1.68,0,0,1,0,1.42,1.92,1.92,0,0,1-1,1,1.9,1.9,0,0,1-2.45-1Z"/>

<path class="cls-13" d="M55.32,7.77V21.05a12.28,12.28,0,0,1,9-4.25h.71q8.32,0,10.69,6.44a19.43,19.43,0,0,1,1.06,6v2.48q0,2.77-.12,6.61-.12,4.31-.12,7.14V47.2A1.83,1.83,0,0,1,76,48.53a1.7,1.7,0,0,1-1.3.56,1.81,1.81,0,0,1-1.3-.5,1.74,1.74,0,0,1-.53-1.33V45.49q0-2.9.12-7.26.12-3.84.12-6.43V29.49q-.18-6.37-3.19-8a9.75,9.75,0,0,0-4.78-.95h-.89a8.54,8.54,0,0,0-6.37,3.19,11.91,11.91,0,0,0-2.54,5.37c0,2.32.06,4.55.06,6.67v3.13c0,3,0,5.81-.06,8.32a1.81,1.81,0,0,1-.56,1.33,1.71,1.71,0,0,1-1.33.53,1.76,1.76,0,0,1-1.27-.56,1.82,1.82,0,0,1-.5-1.3q.06-2.48.06-5.25V39.12c0-2.92,0-6-.06-9.39a1.15,1.15,0,0,1-.06-.62,5.19,5.19,0,0,0,.06-1V24.3q-.06-10.46-.12-16.53a1.76,1.76,0,0,1,.56-1.27,1.85,1.85,0,0,1,1.33-.56,1.73,1.73,0,0,1,1.3.56A1.81,1.81,0,0,1,55.32,7.77Z"/>

<path class="cls-13" d="M85.61,31.86v1.59q0,4.3,0,7.32v2.66c0,2.32,0,3.64,0,4A1.89,1.89,0,0,1,85,48.8a2,2,0,0,1-1.33.44,1.77,1.77,0,0,1-1.27-.59,1.8,1.8,0,0,1-.47-1.45c0-.39.06-1.73.06-4V39.12q-.06-7.2-.09-8.45c0-.82,0-2.12,0-3.89v-7a1.69,1.69,0,0,1,.53-1.24,1.78,1.78,0,0,1,1.3-.53,1.9,1.9,0,0,1,1.33.53,1.68,1.68,0,0,1,.56,1.24v2.78a9,9,0,0,1,1.35-1.42,15.28,15.28,0,0,1,8.27-3.54,1.83,1.83,0,0,1,2.1,1.59,1.88,1.88,0,0,1-.39,1.39,1.66,1.66,0,0,1-1.24.68,11.44,11.44,0,0,0-6.31,2.65C87.36,25.68,86.12,28.31,85.61,31.86Z"/>

<path class="cls-13" d="M122,20.3l.15.12a1.3,1.3,0,0,1,.2.17l.3.3c.15.16.35.37.59.65q4.07,4.07,4.07,11.69a34,34,0,0,1-.29,4.25,14.19,14.19,0,0,1-2.63,6.87,13.73,13.73,0,0,1-5.34,4.4,14.75,14.75,0,0,1-6.26,1.42h-.24a12.84,12.84,0,0,1-6-1.54,15.54,15.54,0,0,1-8-10.74A19.84,19.84,0,0,1,98,33.64a18.63,18.63,0,0,1,2-8.21,16.94,16.94,0,0,1,3.66-5.07,13.55,13.55,0,0,1,5-3.07,12.35,12.35,0,0,1,3.77-.59A16.79,16.79,0,0,1,122,20.3Zm-2.3,2.89a13,13,0,0,0-7.27-2.83,7.2,7.2,0,0,0-2.42.41A11.31,11.31,0,0,0,103.2,27a15.35,15.35,0,0,0-1.54,6.67,16.64,16.64,0,0,0,.41,3.6,11.91,11.91,0,0,0,6.26,8.15,8.74,8.74,0,0,0,4.31,1.06,11.25,11.25,0,0,0,4.78-1.09,10,10,0,0,0,4-3.28,13,13,0,0,0,2.06-6.2,21.75,21.75,0,0,0,.24-3.13q0-5.13-2.54-8.09C120.91,24.49,120.41,24,119.67,23.19Z"/>

<path class="cls-13" d="M152.14,47.38c0-2-.06-4.09-.06-6.26V37.88c0-2.21.06-3.8.06-4.78v-1c0-.47-.06-.94-.06-1.42V28.9q-.24-5.37-1.72-6.73A6.71,6.71,0,0,0,147.83,21a9.93,9.93,0,0,0-2.72-.41,6.79,6.79,0,0,0-5.19,2.3,15.67,15.67,0,0,0-3.84,8.68.24.24,0,0,1-.06.18q.06,6.07.12,15.64a1.88,1.88,0,0,1-.53,1.33,1.75,1.75,0,0,1-1.3.56,1.87,1.87,0,0,1-1.33-.53,1.77,1.77,0,0,1-.56-1.36q-.06-15.93-.24-27.8a1.72,1.72,0,0,1,.56-1.3,1.86,1.86,0,0,1,2.6,0,2.06,2.06,0,0,1,.59,1.5q0,1,0,2.1,3.72-5,9.15-5a15.84,15.84,0,0,1,3.66.47q4.6,1.3,6,5a9.74,9.74,0,0,1,9.21-5.67,16.45,16.45,0,0,1,1.95.12q7,.82,8.74,6.44a21.76,21.76,0,0,1,.88,5.13q.06,1.43.06,3.63c0,1.48,0,3.2-.06,5.17q-.06,4-.11,7.08c0,1,0,2,0,2.9a1.58,1.58,0,0,1-.5,1.32,1.85,1.85,0,0,1-1.3.59,1.73,1.73,0,0,1-1.29-.47,1.67,1.67,0,0,1-.57-1.33c0-1.37,0-2.9,0-4.57s0-3.49,0-5.46c0-2.25.06-4.13.06-5.67V28.73q-.16-5.27-2.48-7a8.19,8.19,0,0,0-4-1.3l-1.24-.12a6.36,6.36,0,0,0-5.08,2.19c-1.45,1.73-2.54,4.72-3.24,9,0,1,0,3.07-.06,6.38q0,1.65-.06,3.24,0,3.2.12,6.2a1.87,1.87,0,0,1-.54,1.3,1.64,1.64,0,0,1-1.3.59,1.86,1.86,0,0,1-1.32-.53A1.7,1.7,0,0,1,152.14,47.38Z"/>

<path class="cls-13" d="M204.93,39.85l-.06,1.6v1.77c0,1.3.14,2.05.42,2.24a4.21,4.21,0,0,0,1.47.33,2,2,0,0,1,1.48.68,1.86,1.86,0,0,1-.3,2.59,1.87,1.87,0,0,1-1.35.42,8.69,8.69,0,0,1-3.25-.95,3.88,3.88,0,0,1-2-2.77,16.69,16.69,0,0,1-10.86,4.31,11.66,11.66,0,0,1-1.18-.06,11,11,0,0,1-7.56-3.54,8.26,8.26,0,0,1-2.12-5.55,11.75,11.75,0,0,1,.35-2.78q.76-3.6,5-5.25a22.52,22.52,0,0,1,5-1.24,70.19,70.19,0,0,0,9.15-1.39c1.22-.37,1.95-.84,2.18-1.39,0-.9-.08-2.38-.23-4.42a3.79,3.79,0,0,0-2.42-3.07,10.57,10.57,0,0,0-4.9-1.07H193a10.65,10.65,0,0,0-5.64,1.77A5.17,5.17,0,0,0,185,26.39a2,2,0,0,1-.62,1.27,1.66,1.66,0,0,1-1.3.53,1.89,1.89,0,0,1-1.3-.59,1.61,1.61,0,0,1-.5-1.32,8.66,8.66,0,0,1,3.9-7.21,13.62,13.62,0,0,1,7.55-2.42,7.57,7.57,0,0,0,.95-.06,14,14,0,0,1,6.79,1.6q4,2.11,4.31,6,.35,4.73.35,9.62,0,2.71-.12,5.49A3.56,3.56,0,0,1,204.93,39.85Zm-3.54-6.49A22.12,22.12,0,0,1,196,34.6c-5.2.59-8.5,1.17-9.92,1.74a3.62,3.62,0,0,0-2.48,2.51,6,6,0,0,0-.18,1.83,5.2,5.2,0,0,0,1.24,3.54,7.51,7.51,0,0,0,5.14,2.13h.77a12.26,12.26,0,0,0,5.84-1.54,10.85,10.85,0,0,0,4.78-5l.06-.7Q201.39,36,201.39,33.36Z"/>

<path class="cls-13" d="M207.81,19.64V19.2l.33-.32a1.68,1.68,0,0,1,1.21-.33l2.36,0,1.71,0q.06-4.95.12-7.73a1.15,1.15,0,0,1,.32-.77,1,1,0,0,1,.77-.35,1,1,0,0,1,.77.35,1.22,1.22,0,0,1,.32.83q-.06,2.77-.06,7.67h.89c1.61,0,3.09,0,4.43-.06a1.06,1.06,0,0,1,.79.33,1,1,0,0,1,.33.77,1.12,1.12,0,0,1-.33.79,2.29,2.29,0,0,1-1.56.39c-.83,0-1.73,0-2.72,0h-1.83v7.55q0,10.4.12,15.12a4,4,0,0,0,.68,2.53,2.14,2.14,0,0,0,1.45.71,11.78,11.78,0,0,0,1.86,0,7.79,7.79,0,0,1,1.41,0,1.13,1.13,0,0,1,.68.39,1.05,1.05,0,0,1,.27.82,1,1,0,0,1-.39.77.93.93,0,0,1-.65.24,8.58,8.58,0,0,0-1.35.09,3.31,3.31,0,0,1-.89,0q-.65,0-1.47-.06a3.91,3.91,0,0,1-2.54-1.39,6.1,6.1,0,0,1-1.3-4q-.12-4.66-.12-15.12V20.74h-.35l-3.66.06a1.7,1.7,0,0,1-1.24-.36A1.08,1.08,0,0,1,207.81,19.64Z"/>

<path class="cls-13" d="M246.06,21a7.78,7.78,0,0,0,.68.71,13.73,13.73,0,0,1,3.66,6.44A22.25,22.25,0,0,1,251,33a30.59,30.59,0,0,1-.36,4.48,13.94,13.94,0,0,1-2.48,6.47,13.19,13.19,0,0,1-5.07,4.28,12.31,12.31,0,0,1-5.43,1.3h-.71a12.27,12.27,0,0,1-5.67-1.42,14.59,14.59,0,0,1-7.62-9.92,21.74,21.74,0,0,1-.47-4.43A18.45,18.45,0,0,1,225,25.83a16.57,16.57,0,0,1,3.49-4.93,11.41,11.41,0,0,1,4.84-2.8,12.76,12.76,0,0,1,3.6-.65q4.43,0,9.09,3.48A.1.1,0,0,1,246.06,21Zm-1.51,1.6a13.24,13.24,0,0,0-7.67-2.9,8.16,8.16,0,0,0-2.95.54q-4.5,1.41-7,6.55a16,16,0,0,0-1.65,7,14.15,14.15,0,0,0,.47,3.72,13.16,13.16,0,0,0,6.55,8.62,8.71,8.71,0,0,0,4.61,1.18h.17a11.5,11.5,0,0,0,5-1.18,10.68,10.68,0,0,0,4.22-3.51,11.93,11.93,0,0,0,2.1-5.46,33.85,33.85,0,0,0,.35-4.61,14.78,14.78,0,0,0-.35-3.54,10.68,10.68,0,0,0-2.36-4.72C245.85,24,245.34,23.45,244.55,22.59Z"/>

<path class="cls-13" d="M276.76,47.44l.29-16.89a25.72,25.72,0,0,0-.38-4.95,7.17,7.17,0,0,0-1.33-3,7.69,7.69,0,0,0-2.89-2.12,7.45,7.45,0,0,0-3.07-.77,8.07,8.07,0,0,0-1.36.12A9.84,9.84,0,0,0,263.18,22a12.9,12.9,0,0,0-3.72,5.38,25.71,25.71,0,0,0-1.71,8.11V47.44a1.2,1.2,0,0,1-.33.83,1,1,0,0,1-.79.35,1,1,0,0,1-.77-.35,1.27,1.27,0,0,1-.3-.83q-.06-5.55-.06-9.62a2.32,2.32,0,0,1-.06-.71q0-.6.06-1.71-.06-7.56-.11-15.77a1.1,1.1,0,0,1,.29-.79,1,1,0,0,1,.74-.33,1.16,1.16,0,0,1,.8.33,1,1,0,0,1,.35.73c0,2.29.06,4.43.06,6.44A16.76,16.76,0,0,1,262,20.22a11.64,11.64,0,0,1,5.81-2.65,10,10,0,0,1,1.54-.12h.23a7.8,7.8,0,0,1,3.84.94,10.37,10.37,0,0,1,3.69,2.81A8.83,8.83,0,0,1,278.79,25a30.69,30.69,0,0,1,.51,5.57L279,47.44a1.15,1.15,0,0,1-.32.77,1.08,1.08,0,0,1-.8.35,1.06,1.06,0,0,1-.8-.35A1.1,1.1,0,0,1,276.76,47.44Z"/>

<path class="cls-13" d="M308,34.18l-.41.06h-6.85q-5.25,0-8.73,0a58.49,58.49,0,0,1-7-.17,15.16,15.16,0,0,0,2.36,8.44,10.76,10.76,0,0,0,6,4.49,11,11,0,0,0,2.9.41,12.3,12.3,0,0,0,4.48-1,12.56,12.56,0,0,0,5.73-5.85A1.09,1.09,0,0,1,308,40a1.19,1.19,0,0,1,.57.68,1.08,1.08,0,0,1-.09.86,14.22,14.22,0,0,1-6.73,7,13.33,13.33,0,0,1-5.49,1.18,12.85,12.85,0,0,1-3.49-.47,13.11,13.11,0,0,1-7.32-5.49,17,17,0,0,1-2.6-9.56v-1q.3-8.08,4.43-12.16a11.87,11.87,0,0,1,8.39-3.66c.35,0,.74,0,1.18.06A12.92,12.92,0,0,1,306,22.25a13.85,13.85,0,0,1,3.3,9.27q0,.77-.06,1.65a.86.86,0,0,1-.35.74,1.25,1.25,0,0,1-.77.27Zm-22.84-2a7.73,7.73,0,0,1,1.95-.12l6.34,0,7.29-.06L305,32h2.07a12.34,12.34,0,0,0-2.83-8.38,11.51,11.51,0,0,0-7.56-3.9,8.91,8.91,0,0,0-1-.06h-.18A8.87,8.87,0,0,0,289,22.49Q285.65,25.73,285.19,32.23Z"/>

</g>

</svg>
