<?xml version="1.0" encoding="utf-8"?>
<!-- Generator: Adobe Illustrator 21.1.0, SVG Export Plug-In . SVG Version: 6.00 Build 0)  -->
<svg version="1.1" id="Chromatone-logo" xmlns="http://www.w3.org/2000/svg" xmlns:xlink="http://www.w3.org/1999/xlink" x="0px"
	 y="0px" viewBox="0 0 275 55" style="enable-background:new 0 0 275 55;" xml:space="preserve">
<g id="logo">
	<path d="M34.4,16.5C29,3.6,8.7,6.7,8.7,25c0,4.3,1,8.1,3.8,11.4c2.2,2.6,4.8,4.2,7.9,4.8c0.8,0.2,1.5,0.3,2.3,0.3
		c0.1,0,0.3,0,0.4,0c4.9,0,9.9-3.2,12.1-10.4c0.7-2,3.7-1.1,3,1C32.1,52.2,6.6,47.1,5.6,26C4,5.1,29.9-2,37.5,15.4
		c0.5,1.2-0.7,2.7-2.1,2.1C34.8,17.2,34.5,16.9,34.4,16.5z"/>
	<path d="M45.5,19.4c2.3-2.6,5.1-3.7,8.4-3.7c11.3,0,10.4,9.6,10.1,18.6c-0.2,8.4,0.1,8.1-0.6,8.9c-0.9,1-2.7,0.5-2.7-1.1
		c0-17.1,2.1-23.2-6.7-23.2c-4.9,0-7.6,3.3-8.5,7.4c0,2,0.1,3.9,0.1,5.8c0,10.8,0.1,10.5-0.5,11.1c-1,1-2.7,0.3-2.7-1.2
		c0.1-4.9-0.1-31.4-0.1-34.2c0-1.3,1.7-2.2,2.8-1.1C45.7,7.5,45.5,6.8,45.5,19.4z"/>
	<path d="M71.8,42.3c-0.1,1.6-1.9,2.1-2.8,1.1c-0.8-0.9-0.1-0.7-0.4-15.6c0-0.7,0-1.8,0-3.4c0-6.6-0.1-6.5,0.5-7.1s1.6-0.6,2.3,0
		c0.6,0.6,0.5,0.9,0.5,3.5c1.9-2.5,5.1-3.8,8.3-4.3c0.4-0.1,0.8,0,1.2,0.3c1.2,0.9,0.6,2.8-0.8,2.9C68.3,21.3,72.7,34.8,71.8,42.3z"
		/>
	<path d="M103.7,18.8l0.1,0.1c0.2,0.1,0.8,0.8,0.9,1c3.5,3.5,3.9,8.9,3.3,13.8c-1.7,14-21.6,15.1-24.7,0.4
		C80.9,22.9,90.9,9.6,103.7,18.8z M101.7,21.3c-2.2-1.6-4.3-2.4-6.3-2.5c-4.6,0-9.3,4.9-9.3,11.6c0,8.2,7,13.3,13.7,10.2
		c4.2-2,5.4-6.3,5.4-10.9C105.2,24.5,103.1,22.8,101.7,21.3z"/>
	<path d="M129.9,42.3c-0.4-18.9,1.1-21.6-3.7-22.9c-5.9-1.7-9.3,3.3-10.2,9.2c0,0.1,0,0.1-0.1,0.2c0.1,14.8,0.3,14.1-0.4,14.7
		c-1,1-2.8,0.4-2.8-1.2c-0.1-26.3-0.5-24.5,0.3-25.2c0.6-0.6,1.6-0.6,2.3,0c0.6,0.6,0.5,1.2,0.5,3.1c2.2-2.9,4.8-4.3,7.9-4.3
		c3.5,0,7.1,1.4,8.3,4.7c1.7-3.3,4.4-4.9,8-4.9c9.7,0,10.1,7.1,10.1,13.3c0,2.1-0.1,9.3-0.2,10.6c0,2.8,0.2,3-0.4,3.7
		c-0.7,0.7-1.6,0.7-2.3,0.1c-0.9-0.8-0.4-3.1-0.4-17.2c-0.2-6.5-2.9-6.9-6.7-7.3c-4.8,0-6.3,4.4-7.2,9.7c0,6.8-0.2,8.2,0,13.7
		c0,1.4-1.7,2.2-2.7,1.2C130,43.1,129.9,42.7,129.9,42.3z"/>
	<path d="M175.5,40.6c0.3,0.1,0.7,0.2,1.3,0.3c2.5,0.2,1.9,3.4-0.2,3.2c-2.8-0.3-4.1-1.3-4.5-3.2c-7.9,7.3-20.9,3.3-18.5-6.6
		c1.7-7.9,17-4.7,18.4-8c0-0.8-0.1-2.1-0.2-3.8c-0.3-4.9-13.8-5.2-13.9,1.7c-0.1,1.3-1.6,2.2-2.8,1c-1.6-1.6,0.6-9.1,9.5-9.5
		c0.4,0,3.6-0.4,6.7,1.3c2.3,1.2,3.6,3,3.7,5.2C175.9,33.6,174.5,39.9,175.5,40.6z M172.1,30.1c-6.3,2.4-16,0.2-15.6,6.4
		c0,6.7,11.9,6.7,15.4-0.8C172,34.3,172.1,31.5,172.1,30.1z"/>
	<path d="M179.1,17.8c0.6-0.6,0.3-0.6,4.9-0.6c0-2.9,0.1-5.1,0.1-6.7c0-0.5,0.4-1,0.9-1s0.9,0.5,0.9,1c0,1.6-0.1,3.8-0.1,6.7
		c1.1,0,2.7,0,4.6-0.1c0.6,0,1,0.4,1,0.9c0,0.9-0.8,1-1.6,1c-1.2,0-2.3,0-3.9,0c0,20.6,0,21.1,0.7,21.9c1.1,1.2,3,0.4,4.1,0.6
		c1.2,0.2,1,2-0.1,1.9c-0.5-0.1-1.2,0.2-1.9,0.1c-1.5,0-2.4-0.1-3.5-1.3c-1.4-1.5-1.2-2.6-1.2-23.2
		C180.1,19.1,179.1,19.6,179.1,17.8z"/>
	<path d="M212.3,19.4c0.3,0.7,5.5,3.7,4,14.3c-1.8,13.5-20.4,14-23.4,0.6C190.3,22.2,200.7,10.8,212.3,19.4
		C212.3,19.3,212.3,19.4,212.3,19.4z M211,20.8c-10.8-7.7-18.6,4.4-16.3,13c2.8,11.8,18.2,10.8,19.7-0.3
		C215.5,25.5,213.5,23.5,211,20.8z"/>
	<path d="M239.9,42.3c0.3-17.8,1.3-21-3.7-23.4c-0.8-0.4-1.7-0.6-2.7-0.7c-1.9,0-3.7,0.7-5.4,2c-7.3,5.9-3.7,21.3-5,22.8
		c-0.6,0.6-1.6,0.2-1.6-0.7c0-24.8-0.4-24.2,0.1-24.8c0.3-0.4,0.9-0.4,1.3,0c0.2,0.2,0.3,0.4,0.3,0.6c0,2,0.1,3.8,0.1,5.6
		c1-2.1,2.2-3.8,3.8-5c2.9-2.4,7-3.2,9.9-1.6c6.3,3.1,5.2,7.6,4.9,25.2c0,0.8-1.1,1.3-1.7,0.7C240,42.7,239.9,42.5,239.9,42.3z"/>
	<path d="M247.8,30.7c0.1,12.7,13.5,15.5,18.6,5.6c0.7-1.4,2.3-0.2,1.7,0.8c-2.4,4.8-6.3,7.1-10.6,7.1c-16.3,0-14.9-29.3,0.5-28
		c5.7,0.4,11.3,5.3,10.8,13.6c0,0.6-0.6,0.9-1,0.9C265.3,30.8,248.4,31,247.8,30.7z M247.9,29.1c0.3-0.1,18.7-0.2,19-0.2
		C267.1,16.4,249.1,12.8,247.9,29.1z"/>
</g>
</svg>
