<svg version="1.1" id="Chromatone-logo" xmlns="http://www.w3.org/2000/svg" xmlns:xlink="http://www.w3.org/1999/xlink" x="0px" y="0px"
 viewBox="0 0 500 150" style="enable-background:new 0 0 500 150;" xml:space="preserve">
<g id="logo">
  <path class="chr27" d="M112.4,65.5C107,52.6,86.7,55.7,86.7,74c0,4.3,1,8.1,3.8,11.4c2.2,2.6,4.8,4.2,7.9,4.8c0.8,0.2,1.5,0.3,2.3,0.3c0.1,0,0.3,0,0.4,0c4.9,0,9.9-3.2,12.1-10.4c0.7-2,3.7-1.1,3,1c-6.1,20.1-31.6,15-32.6-6.1c-1.6-20.9,24.3-28,31.9-10.6c0.5,1.2-0.7,2.7-2.1,2.1C112.8,66.2,112.5,65.9,112.4,65.5z"/>
  <path class="chr27" d="M123.5,68.4c2.3-2.6,5.1-3.7,8.4-3.7c11.3,0,10.4,9.6,10.1,18.6c-0.2,8.4,0.1,8.1-0.6,8.9c-0.9,1-2.7,0.5-2.7-1.1c0-17.1,2.1-23.2-6.7-23.2c-4.9,0-7.6,3.3-8.5,7.4c0,2,0.1,3.9,0.1,5.8c0,10.8,0.1,10.5-0.5,11.1c-1,1-2.7,0.3-2.7-1.2c0.1-4.9-0.1-31.4-0.1-34.2c0-1.3,1.7-2.2,2.8-1.1C123.7,56.5,123.5,55.8,123.5,68.4z"/>
  <path class="chr27" d="M149.8,91.3c-0.1,1.6-1.9,2.1-2.8,1.1c-0.8-0.9-0.1-0.7-0.4-15.6c0-0.7,0-1.8,0-3.4c0-6.6-0.1-6.5,0.5-7.1c0.6-0.6,1.6-0.6,2.3,0c0.6,0.6,0.5,0.9,0.5,3.5c1.9-2.5,5.1-3.8,8.3-4.3c0.4-0.1,0.8,0,1.2,0.3c1.2,0.9,0.6,2.8-0.8,2.9C146.3,70.3,150.7,83.8,149.8,91.3z"/>
  <path class="chr27" d="M181.7,67.8c0,0,0.1,0.1,0.1,0.1c0.2,0.1,0.8,0.8,0.9,1c3.5,3.5,3.9,8.9,3.3,13.8c-1.7,14-21.6,15.1-24.7,0.4C158.9,71.9,168.9,58.6,181.7,67.8z M179.7,70.3c-2.2-1.6-4.3-2.4-6.3-2.5c-4.6,0-9.3,4.9-9.3,11.6c0,8.2,7,13.3,13.7,10.2c4.2-2,5.4-6.3,5.4-10.9C183.2,73.5,181.1,71.8,179.7,70.3z"/>
  <path class="chr27" d="M207.9,91.3c-0.4-18.9,1.1-21.6-3.7-22.9c-5.9-1.7-9.3,3.3-10.2,9.2c0,0.1,0,0.1-0.1,0.2c0.1,14.8,0.3,14.1-0.4,14.7c-1,1-2.8,0.4-2.8-1.2c-0.1-26.3-0.5-24.5,0.3-25.2c0.6-0.6,1.6-0.6,2.3,0c0.6,0.6,0.5,1.2,0.5,3.1c2.2-2.9,4.8-4.3,7.9-4.3c3.5,0,7.1,1.4,8.3,4.7c1.7-3.3,4.4-4.9,8-4.9c9.7,0,10.1,7.1,10.1,13.3c0,2.1-0.1,9.3-0.2,10.6c0,2.8,0.2,3-0.4,3.7c-0.7,0.7-1.6,0.7-2.3,0.1c-0.9-0.8-0.4-3.1-0.4-17.2c-0.2-6.5-2.9-6.9-6.7-7.3c-4.8,0-6.3,4.4-7.2,9.7c0,6.8-0.2,8.2,0,13.7c0,1.4-1.7,2.2-2.7,1.2C208,92.1,207.9,91.7,207.9,91.3z"/>
  <path class="chr27" d="M253.5,89.6c0.3,0.1,0.7,0.2,1.3,0.3c2.5,0.2,1.9,3.4-0.2,3.2c-2.8-0.3-4.1-1.3-4.5-3.2c-7.9,7.3-20.9,3.3-18.5-6.6c1.7-7.9,17-4.7,18.4-8c0-0.8-0.1-2.1-0.2-3.8c-0.3-4.9-13.8-5.2-13.9,1.7c-0.1,1.3-1.6,2.2-2.8,1c-1.6-1.6,0.6-9.1,9.5-9.5c0.4,0,3.6-0.4,6.7,1.3c2.3,1.2,3.6,3,3.7,5.2C253.9,82.6,252.5,88.9,253.5,89.6z M250.1,79.1c-6.3,2.4-16,0.2-15.6,6.4c0,6.7,11.9,6.7,15.4-0.8C250,83.3,250.1,80.5,250.1,79.1z"/>
  <path class="chr27" d="M257.1,66.8c0.6-0.6,0.3-0.6,4.9-0.6c0-2.9,0.1-5.1,0.1-6.7c0-0.5,0.4-1,0.9-1c0.5,0,0.9,0.5,0.9,1c0,1.6-0.1,3.8-0.1,6.7c1.1,0,2.7,0,4.6-0.1c0.6,0,1,0.4,1,0.9c0,0.9-0.8,1-1.6,1c-1.2,0-2.3,0-3.9,0c0,20.6,0,21.1,0.7,21.9c1.1,1.2,3,0.4,4.1,0.6c1.2,0.2,1,2-0.1,1.9c-0.5-0.1-1.2,0.2-1.9,0.1c-1.5,0-2.4-0.1-3.5-1.3c-1.4-1.5-1.2-2.6-1.2-23.2C258.1,68.1,257.1,68.6,257.1,66.8z"/>
  <path class="chr27" d="M290.3,68.4c0.3,0.7,5.5,3.7,4,14.3c-1.8,13.5-20.4,14-23.4,0.6C268.3,71.2,278.7,59.8,290.3,68.4C290.3,68.3,290.3,68.4,290.3,68.4z M289,69.8c-10.8-7.7-18.6,4.4-16.3,13c2.8,11.8,18.2,10.8,19.7-0.3C293.5,74.5,291.5,72.5,289,69.8z"/>
  <path class="chr27" d="M317.9,91.3c0.3-17.8,1.3-21-3.7-23.4c-0.8-0.4-1.7-0.6-2.7-0.7c-1.9,0-3.7,0.7-5.4,2c-7.3,5.9-3.7,21.3-5,22.8c-0.6,0.6-1.6,0.2-1.6-0.7c0-24.8-0.4-24.2,0.1-24.8c0.3-0.4,0.9-0.4,1.3,0c0.2,0.2,0.3,0.4,0.3,0.6c0,2,0.1,3.8,0.1,5.6c1-2.1,2.2-3.8,3.8-5c2.9-2.4,7-3.2,9.9-1.6c6.3,3.1,5.2,7.6,4.9,25.2c0,0.8-1.1,1.3-1.7,0.7C318,91.7,317.9,91.5,317.9,91.3z"/>
  <path class="chr27" d="M325.8,79.7c0.1,12.7,13.5,15.5,18.6,5.6c0.7-1.4,2.3-0.2,1.7,0.8c-2.4,4.8-6.3,7.1-10.6,7.1c-16.3,0-14.9-29.3,0.5-28c5.7,0.4,11.3,5.3,10.8,13.6c0,0.6-0.6,0.9-1,0.9C343.3,79.8,326.4,80,325.8,79.7z M325.9,78.1c0.3-0.1,18.7-0.2,19-0.2C345.1,65.4,327.1,61.8,325.9,78.1z"/>
</g>
</svg>
